<svg width="476" height="256" viewBox="0 0 476 256" fill="none" xmlns="http://www.w3.org/2000/svg">
<path d="M435.529 11.008C281.106 -3.612 194.524 -3.72655 40.102 11.008C22.8145 12.9319 16.0026 18.9121 11.9578 43.3739C0.861058 110.626 -1.3868 147.229 0.700089 210.832C10.746 235.069 19.5336 242.298 40.102 245.309C194.516 258.075 281.095 259.176 435.529 248.827C463.207 241.078 472.045 232.884 474.931 210.832C477.139 136.812 475.791 100.096 468.598 43.3739C463.228 21.2735 453.707 16.9548 435.529 11.008Z" fill="#E81C28"/>
<circle cx="415.828" cy="120.067" r="14.7757" fill="#D9D9D9"/>
<circle cx="449.601" cy="90.5155" r="14.7757" fill="#D9D9D9"/>
<circle cx="45.0273" cy="102.477" r="32.3659" fill="#D9D9D9"/>
<path d="M54.786 91.7033V79.3864C54.786 79.3864 51.9563 77.147 45.165 77.147C38.3737 77.147 35.5439 79.3864 35.5439 79.3864V91.7033C35.5439 92.2632 35.5439 92.2632 34.978 92.823L35.5439 92.2632L45.165 102.9L54.786 92.2632L55.9179 93.3829L46.2969 104.58L55.9179 115.217L54.786 116.337L45.165 105.7L35.5439 116.337L34.4121 115.217L44.0331 104.58L34.4121 93.9427L34.978 93.3829C34.978 93.3829 34.4121 93.9427 33.8461 93.9427L20.8294 95.6223C20.8294 95.6223 19.6975 96.742 19.6975 104.02C19.6975 111.298 21.9613 113.538 21.9613 113.538L33.8461 115.217C34.978 115.217 35.5439 116.337 35.5439 116.897V126.974C35.5439 126.974 38.9396 129.214 45.7309 129.214C52.5223 129.214 54.786 128.094 54.786 128.094V116.897C54.786 115.777 55.352 115.217 56.4839 115.217L69.5006 113.538C69.5006 113.538 71.7644 110.179 71.7644 104.02C71.7644 97.8618 69.5006 95.6223 69.5006 95.6223L56.4839 93.3829C55.352 93.3829 54.786 92.823 54.786 91.7033Z" fill="#E81C28"/>
<path d="M357.771 173.75C352.037 187.385 346.696 192.812 331.67 196.76H240.634V22.2657H331.67C386.664 23.982 407.894 30.2267 399.151 67.0079L357.771 173.75Z" fill="#D9D9D9"/>
<path d="M123.489 173.75C129.222 187.385 134.564 192.812 149.59 196.76H240.625V109.513V22.2657H149.59C94.5959 23.982 73.3658 30.2267 82.1087 67.0079L123.489 173.75Z" fill="#D9D9D9"/>
<path d="M330.135 34.9307C335.105 34.9307 339.135 38.9601 339.135 43.9307V175.095C339.135 180.065 335.105 184.095 330.135 184.095H152.532C147.562 184.095 143.532 180.065 143.532 175.095V43.9307C143.532 38.9601 147.562 34.9307 152.532 34.9307H330.135ZM289.708 49.001C289.597 49.0239 289.457 49.0395 289.332 49.0898C288.864 49.2409 288.797 49.2868 288.287 49.5156C286.924 50.1341 285.192 51.5557 282.216 53.8096C275.439 58.9448 267.744 59.6033 258.67 59.8047C239.86 60.2254 231.231 64.7899 227.174 70.5654C223.112 76.342 223.619 83.3296 223.123 88.5967C222.782 92.1836 222.103 95.3056 219.46 98.7012L219.063 98.4727C219.767 96.7621 219.97 95.5284 219.81 94.6514C219.635 93.7139 219.1 93.1079 218.454 92.5811C217.803 92.0555 217.056 91.6127 216.443 90.9736C215.959 90.4706 215.646 89.7941 215.475 88.9785L215.442 88.8223L215.575 88.7354C216.393 88.21 217.394 88.194 218.182 88.6719C219.148 89.2575 219.773 90.5614 219.357 92.4346H219.408C221.169 90.5623 221.926 89.0514 222.047 87.7783C222.173 86.487 221.671 85.4353 220.965 84.502C220.258 83.5672 219.34 82.745 218.663 81.9082C218.016 81.1131 217.6 80.2972 217.755 79.3643L217.766 79.291L217.817 79.2402C218.124 78.9322 218.419 78.7079 218.715 78.5889C219.329 78.3433 219.895 78.5254 220.332 78.9326C220.771 79.3409 221.104 79.9718 221.308 80.6475C221.5 81.2988 221.564 81.9798 221.486 82.5332C221.49 82.5787 221.494 82.5781 221.497 82.5781C222.68 80.7861 223.157 79.2659 223.181 77.9609C223.203 76.6363 222.758 75.5302 222.118 74.5791C221.473 73.6302 220.639 72.8288 219.872 72.1357C219.128 71.4661 218.48 70.9057 218.117 70.3623L218.079 70.3027V69.6553L218.175 69.5869C218.787 69.1488 219.601 68.8967 220.382 69.0615C221.193 69.2323 221.928 69.8461 222.277 71.0391C222.331 68.6569 221.892 66.7394 221.017 65.3281C220.189 63.9871 218.973 63.1009 217.476 62.6064L217.188 62.5098L217.357 62.2578C217.42 62.1618 217.48 62.0661 217.576 61.9473C218.107 61.2547 218.813 60.4678 219.492 59.5674C220.837 57.7799 222.097 55.5491 221.855 52.8027C220.497 54.518 218.126 55.0051 215.705 55.3301L215.257 55.3896L215.472 54.9961C215.744 54.4935 216.099 53.8288 216.408 53.0332C216.76 52.1292 217.009 51.2202 216.895 50.6201C215.339 52.2951 212.52 53.2424 210.056 53.9189C208.825 54.2586 207.68 54.5272 206.832 54.7881C206.408 54.9163 206.057 55.0489 205.807 55.1816C205.657 55.2593 205.55 55.3507 205.474 55.4512L205.384 55.5664L205.24 55.5205C203.543 55.1497 201.942 54.9027 200.523 54.834C197.943 54.7059 195.854 55.0148 194.468 55.5732C193.772 55.8525 193.248 56.1995 192.926 56.584C192.607 56.9626 192.485 57.3867 192.578 57.8262C192.663 58.2143 193.023 58.6583 193.541 59.0977L193.303 59.4814C189.611 57.9654 186.451 57.3615 183.878 57.3574C182.819 57.3574 181.842 57.4495 180.97 57.6006C179.224 57.9032 177.857 58.4541 176.864 59.0098C176.085 59.4455 175.619 59.8514 175.302 60.1855H175.29C175.281 60.1979 175.272 60.2068 175.264 60.2148C175.676 59.9893 176.115 59.7873 176.583 59.6113L176.656 59.5654H176.731C176.734 59.566 176.759 59.5674 176.739 59.5674H176.744C177.239 59.5765 177.748 59.6822 178.223 59.8652C178.727 60.0589 179.2 60.3021 179.558 60.5264C179.736 60.6407 179.886 60.7458 179.999 60.8281C180.112 60.9105 180.177 60.9562 180.219 61.002L180.224 61.0068C180.443 61.1441 180.775 61.2999 181.105 61.4463L181.323 61.542L181.22 61.7529C180.523 63.1853 180.269 65.0327 180.281 67.7793L180.282 67.9707L180.095 68.0166C179.979 68.0395 179.877 68.0489 179.713 68.0947C178.939 68.2137 177.931 68.2825 176.82 68.2139C175.248 68.1191 173.486 67.7313 171.881 66.8936L172.028 66.4629C172.308 66.5087 172.561 66.5996 172.77 66.5996C173.891 66.6559 174.871 66.4272 175.584 66.0381H175.645C175.757 65.9923 175.832 65.9912 175.888 65.9912C174.634 65.4945 168.754 62.772 163.717 56.4697C163.947 59.4743 164.891 66.7528 170.965 72.6279C170.829 71.9016 170.751 71.3703 170.614 70.6367C170.604 70.591 170.6 70.6361 170.591 70.5908L170.575 70.5449V70.499C170.589 69.4883 170.507 68.8002 170.39 68.2275L170.248 67.5371L170.771 68.0137C172.584 69.6633 174.481 70.4012 176.261 70.6348C178.535 70.9305 180.611 70.4606 182.014 70.2363C182.075 70.2362 182.154 70.1914 182.233 70.1914L182.495 70.1455L182.499 70.4102C182.523 71.7798 182.007 73.4756 181.158 74.8887C180.68 75.6884 180.115 76.3839 179.503 76.876C178.915 77.3456 178.278 77.6385 177.651 77.5928L177.649 77.6426C180.12 77.6426 182.197 77.7112 184.432 77.5693H184.897C184.901 77.5698 184.903 77.5708 184.906 77.5713H185.112V77.8008C185.112 77.9238 185.072 77.9467 185.051 77.9922H185.045C184.947 78.1569 184.782 78.3402 184.568 78.5645C184.368 78.7727 184.12 79.0146 183.86 79.2617H183.93L183.978 79.3076H184.033C184.097 79.2939 184.153 79.285 184.252 79.2393H184.272L184.294 79.2373C185.765 79.0821 187.574 78.7747 188.905 77.8262L189.37 77.4971L189.266 78.0566C189.235 78.2209 189.183 78.4268 189.127 78.5732H189.123C189.054 78.7293 188.94 78.8896 188.754 79.0771H188.743C188.709 79.1046 188.652 79.156 188.647 79.1602H188.624C188.412 79.3216 188.229 79.4817 187.954 79.6738C189.431 79.5062 192.106 78.3433 194.01 76.3447L194.09 76.2578H194.207C195.286 76.4015 195.995 76.94 196.465 77.459C196.714 77.7355 196.892 77.9827 197.058 78.1338C197.101 78.1704 197.168 78.1847 197.251 78.2305L197.405 78.2803V78.4453C197.405 78.5597 197.366 78.6193 197.351 78.665C197.343 78.694 197.344 78.6863 197.344 78.6768C197.343 78.6729 197.341 78.6689 197.34 78.665C197.341 78.665 197.343 78.6712 197.344 78.6768C197.38 78.7901 197.455 78.8779 197.563 78.9443L197.752 79.0586L197.646 79.251C196.925 80.561 196.732 81.4763 196.825 81.9707C196.883 82.2735 197.008 82.461 197.145 82.5938L197.34 82.7822L197.12 82.9424C196.156 83.6444 195.356 84.3989 194.994 85.0342C194.795 85.3838 194.72 85.6933 194.785 85.9404L194.786 85.9453C194.788 85.9545 194.831 86.0054 194.906 86.1152L195.123 86.4307L194.741 86.4766C194.599 86.4784 194.574 86.4785 194.552 86.4785C193.645 86.9198 192.73 87.8224 192.25 88.6787C192.011 89.1104 191.891 89.5177 191.918 89.8564C191.932 89.98 191.987 90.0988 192.07 90.2178L192.224 90.4326L191.986 90.5527C190.837 91.1374 189.696 92.5056 189.086 93.709C188.777 94.3282 188.609 94.8954 188.65 95.2891C188.669 95.4767 188.742 95.623 188.869 95.71L189.088 95.8564L188.91 96.0488L188.777 96.1816C188.753 96.2274 188.737 96.2275 188.728 96.2275L188.705 96.2734H188.666C187.526 96.8552 186.714 98.2807 186.374 99.54C186.201 100.182 186.145 100.775 186.234 101.178C186.257 101.278 186.331 101.375 186.434 101.503L186.581 101.686L186.393 101.827C186.29 101.9 186.218 101.946 186.197 101.946C185.851 102.245 185.595 102.603 185.51 102.731L185.493 102.777H185.481C184.816 103.621 184.501 105.074 184.544 106.273C184.566 106.876 184.681 107.411 184.888 107.772C184.941 107.864 185.036 107.938 185.165 108.043L185.344 108.189L185.195 108.363C185.148 108.432 185.134 108.432 185.119 108.432H185.105C184.441 109.276 184.127 110.727 184.171 111.925C184.193 112.531 184.31 113.064 184.514 113.426C184.614 113.604 184.74 113.733 184.883 113.807C184.877 113.802 184.963 113.806 185.117 113.806H185.492L185.31 114.131C185.271 114.2 185.244 114.209 185.215 114.255C185.186 114.301 185.146 114.346 185.172 114.3C185.16 114.323 185.147 114.323 185.12 114.369H185.129C185.045 114.456 184.989 114.558 184.929 114.731C184.908 114.791 184.888 114.915 184.86 115.038L184.854 115.084L184.842 115.13C184.722 115.373 184.603 115.538 184.457 115.647C184.311 115.744 184.119 115.79 183.969 115.744C183.668 115.654 183.519 115.401 183.396 115.228H183.375C181.472 111.295 179.582 108.917 177.743 99.877C177.677 99.5529 177.413 99.1159 177.024 98.5703C176.636 98.0246 176.13 97.3648 175.601 96.5518C174.542 94.9258 173.395 92.6761 172.903 89.4512C172.846 89.0236 172.958 88.5434 173.09 88.0303C173.222 87.517 173.379 86.9733 173.448 86.4609C173.518 85.9482 173.499 85.4744 173.307 85.0898C173.117 84.709 172.753 84.3893 172.06 84.165H171.945L171.881 84.042C170.888 82.1715 169.422 81.6241 168.098 81.6699C167.435 81.6928 166.81 81.8658 166.317 82.1084C165.828 82.3492 165.477 82.664 165.345 82.9111C165.529 82.8654 165.728 82.8654 165.953 82.9111C166.205 82.9615 166.476 83.0528 166.734 83.1855C167.25 83.452 167.741 83.9 167.746 84.5244L167.747 84.5693L167.728 84.6152C167.299 85.62 167.349 86.541 167.439 87.207C167.485 87.5402 167.543 87.8022 167.551 88.0127C167.555 88.1178 167.563 88.2278 167.463 88.3467C167.413 88.4105 167.329 88.4608 167.256 88.4609C167.183 88.5067 167.122 88.4609 167.064 88.4609L166.909 88.4111L166.903 88.25C166.858 86.6814 166.01 85.9623 165.128 85.5869C164.687 85.3993 164.239 85.3114 163.896 85.2656C163.742 85.2199 163.619 85.2239 163.519 85.2207V85.2656L161.654 85.042C160.331 85.053 159.454 85.3038 158.891 85.6562C158.326 86.0114 158.059 86.4687 157.942 86.9629C157.715 87.9288 158.122 89.0187 158.291 89.417C158.286 89.4188 158.31 89.4217 158.369 89.418C158.372 89.4178 158.375 89.4174 158.378 89.417C158.382 89.4525 158.388 89.4887 158.394 89.5254L158.4 89.4199C158.412 89.3779 158.424 89.411 158.378 89.417C158.334 89.0664 158.365 88.7721 158.478 88.5352C158.601 88.2739 158.83 88.0951 159.091 88.0127C159.613 87.8526 160.258 88.0046 160.908 88.3066L161.007 88.3516L161.033 88.457C161.419 89.9152 162.004 90.6376 162.499 91.0039C162.994 91.3884 163.407 91.3873 163.495 91.3887L163.721 91.3926V91.4658C165.912 91.9803 166.703 93.4819 166.722 94.4707L166.729 94.8096L166.408 94.6865C165.726 94.4257 164.906 94.2837 163.727 94.5078H163.604L163.519 94.4209C162.787 93.6775 161.254 93.3608 160.726 93.251C160.715 93.2463 160.56 93.208 160.381 93.251C160.188 93.2784 159.943 93.3295 159.688 93.4072C159.175 93.567 158.627 93.851 158.33 94.2676L158.247 94.3818L157.916 94.3271C157.144 94.583 156.656 94.9756 156.367 95.4287C156.072 95.8924 155.974 96.4284 156.006 96.957C156.038 97.4856 156.204 98.0054 156.427 98.4082C156.631 98.7801 156.884 99.0086 157.079 99.1094C156.925 98.5988 156.941 98.1415 157.194 97.8486C157.493 97.5053 158.017 97.4414 158.517 97.6611H158.561L158.593 97.707C159.217 98.3872 159.879 98.8359 160.773 98.9229C161.668 99.0094 162.826 98.7222 164.414 97.8301L164.521 97.7705L164.631 97.8252C164.646 97.8319 164.733 97.8713 164.838 97.917C164.964 97.9719 165.139 98.0498 165.35 98.1367C165.77 98.3148 166.329 98.5395 166.901 98.75L167.058 98.8096L167.052 98.9736C167.032 99.5632 167.36 100.479 167.838 101.444C168.316 102.41 168.934 103.434 169.456 104.313L169.503 104.392L169.481 104.479C169.148 105.875 168.614 107.227 168.265 107.788L168.23 107.843L168.182 107.889C168.169 107.934 168.173 107.935 168.135 107.935L168.182 107.889C166.967 108.82 165.862 111.146 166.368 113.165L166.385 113.234L166.359 113.303C166.126 113.901 165.617 114.35 165.056 114.396C164.775 114.409 164.483 114.272 164.299 114.002C164.231 113.901 164.24 113.695 164.196 113.562C164.203 113.801 164.161 114 164.273 114.302C164.459 114.807 164.787 115.35 165.228 115.78C165.668 116.213 166.218 116.534 166.855 116.63C167.487 116.724 168.215 116.594 169.042 116.098L169.786 115.261H169.893C170.366 115.267 170.911 114.943 171.387 114.435C171.862 113.925 172.26 113.245 172.464 112.633L172.91 112.679C174.636 123.183 178.727 133.816 180.415 137.231L180.456 137.314L180.428 137.401C179.776 139.402 178.467 140.405 177.163 140.712C175.926 141.003 174.735 140.669 174.032 140.027C175.091 141.076 175.927 141.784 176.729 142.21C177.56 142.652 178.372 142.821 179.452 142.816C181.838 142.808 183.419 142.074 184.461 141.195C185.502 140.317 186.004 139.282 186.182 138.688L186.22 138.556L186.354 138.51C188.366 138.081 190.157 137.21 191.595 136.414C192.313 136.016 192.944 135.639 193.475 135.342C194.004 135.047 194.423 134.828 194.783 134.764H194.893L194.976 134.837C195.187 135.017 195.443 135.316 195.571 135.421C196.527 136.176 197.307 136.581 197.951 136.654C198.256 136.686 198.528 136.64 198.773 136.521L198.981 136.421L199.082 136.627C199.342 137.158 199.728 137.591 200.226 137.938L200.342 138.021L200.32 138.158C200.113 139.563 199.945 142.521 198.895 146.276C197.811 150.14 195.787 154.767 191.854 159.135L191.821 159.181H191.775C190.947 159.551 190.17 159.451 189.527 159.181C188.885 158.911 188.36 158.475 187.964 158.159C187.603 157.871 187.001 157.272 186.436 156.611C185.869 155.95 185.345 155.252 185.167 154.692C184.813 153.577 184.408 152.827 183.843 152.272C183.345 151.783 182.469 151.585 181.733 151.503H181.713C181.701 151.502 181.698 151.501 181.692 151.5H181.575C181.302 151.546 181.104 151.546 180.967 151.546H180.87L180.794 151.485C180.24 151.048 179.717 150.921 179.229 150.976C178.742 151.031 178.278 151.282 177.882 151.652C177.09 152.396 176.605 153.626 176.729 154.503C176.937 154.096 177.344 153.9 177.738 153.945C178.152 153.995 178.554 154.246 178.83 154.621L178.883 154.694L178.873 154.781C178.801 155.448 178.833 156.146 179.562 157.021L179.846 157.365L179.4 157.411C178.682 157.462 177.813 157.651 176.854 158.752L176.795 158.82H176.707C175.735 158.937 175.077 159.291 174.633 159.76C174.189 160.228 173.955 160.822 173.874 161.436C173.793 162.049 173.868 162.679 174.033 163.192C174.106 163.42 174.222 163.484 174.322 163.653C174.29 163.53 174.246 163.397 174.247 163.282C174.252 162.915 174.434 162.611 174.695 162.423C175.217 162.05 176.018 162.072 176.571 162.537L176.622 162.583L176.643 162.647C176.737 162.946 177.031 163.289 177.424 163.596C177.817 163.903 178.302 164.183 178.744 164.394L178.905 164.472L178.869 164.646C178.839 164.792 178.757 165.054 178.691 165.329C178.659 165.466 178.63 165.599 178.617 165.709C178.604 165.813 178.619 165.881 178.612 165.883L178.688 166.07L178.51 166.167C177.455 166.741 176.941 167.4 176.742 168.055C176.543 168.709 176.658 169.383 176.938 169.997C177.217 170.611 177.664 171.157 178.092 171.523C178.306 171.702 178.516 171.844 178.688 171.922C178.861 172 178.993 172 179.029 172C179.117 171.954 179.145 171.954 179.167 171.954C178.863 171.449 178.687 170.91 178.748 170.462C178.78 170.226 178.893 170.002 179.107 169.878C179.322 169.736 179.597 169.736 179.904 169.832H179.96C180.441 170.136 181.505 170.31 182.042 170.311C182.683 170.32 183.157 170.131 183.714 169.719C184.271 169.307 184.894 168.667 185.762 167.824C186.311 167.29 186.852 167.12 187.323 167.166C187.794 167.212 188.179 167.442 188.494 167.606L188.588 167.656L188.611 167.757C188.674 168.031 188.759 168.27 189.002 168.366C189.428 168.54 190.55 168.646 191.162 168.646C194.701 168.535 196.636 167.771 198.271 167.209C199.915 166.642 201.422 166.312 202.819 166.312C204.127 166.287 205.009 166.555 206.397 167.016C206.763 167.138 207.214 167.334 207.642 167.499C208.068 167.664 208.483 167.785 208.679 167.783C209.503 167.752 209.812 167.393 210.014 167.082L210.068 167H210.167C210.518 166.954 210.815 166.945 211.068 167C211.322 167.055 211.542 167.192 211.653 167.412C211.863 167.824 211.708 168.373 211.356 169.08C211.656 168.95 212.152 168.619 212.621 168.158C213.099 167.69 213.55 167.095 213.788 166.471C214.026 165.846 214.058 165.208 213.717 164.578C213.376 163.949 212.639 163.31 211.275 162.762H211.238L211.209 162.716C210.386 161.99 209.294 161.393 208.556 161.393C207.757 161.393 206.916 161.729 205.999 161.926C205.553 162.022 205.112 162.114 204.744 162.183C204.377 162.251 204.094 162.299 203.904 162.302C203.595 162.306 203.339 162.264 203.127 162.159C202.915 162.057 202.758 161.883 202.655 161.687C202.45 161.289 202.418 160.783 202.362 160.158C202.326 159.753 202.491 159.24 202.748 158.614C203.006 157.989 203.369 157.267 203.771 156.536C204.576 155.076 205.537 153.586 206.14 152.792C208.488 149.707 211.609 146.202 213.865 143.898L213.929 143.834L214.021 143.83C215.716 143.758 216.836 143.947 217.564 144.317C218.293 144.688 218.613 145.275 218.624 145.867C218.635 146.46 218.378 147.048 218.054 147.544C217.751 148.007 217.396 148.362 217.085 148.586C219.29 148.002 221.406 146.519 222.252 145.154L222.403 144.885C222.404 144.886 222.406 144.885 222.404 144.883H222.409C222.412 144.837 222.417 144.837 222.423 144.837C222.435 144.814 222.452 144.787 222.474 144.741C222.517 144.654 222.577 144.531 222.646 144.375C222.782 144.061 222.949 143.616 223.07 143.097C223.313 142.057 223.37 140.729 222.664 139.515H222.654C222.576 139.351 222.503 139.149 222.436 139.003L222.34 138.797L222.547 138.701C222.901 138.538 223.361 138.105 223.715 137.693C223.892 137.486 224.045 137.285 224.154 137.129C224.209 137.051 224.253 136.982 224.282 136.932C224.311 136.872 224.323 136.827 224.314 136.873L224.366 136.635L224.604 136.703C225.071 136.836 226.433 136.868 227.653 136.562C228.264 136.407 228.845 136.17 229.285 135.841C229.725 135.512 230.023 135.101 230.11 134.564L230.145 134.35H230.359C231.288 134.44 232.649 134.172 233.762 133.62C234.875 133.069 235.715 132.255 235.774 131.306L235.805 130.811L236.163 131.153C236.22 131.208 236.351 131.277 236.546 131.277C236.741 131.296 236.991 131.273 237.258 131.228L237.497 131.182L237.526 131.42C237.625 132.217 238.323 133.068 239.086 133.648C239.468 133.939 239.863 134.163 240.186 134.287C240.507 134.424 240.751 134.379 240.782 134.379L241.098 134.19L241.131 134.557C241.261 135.961 242.219 137.005 243.295 137.642C243.833 137.961 244.397 138.172 244.883 138.272C245.369 138.391 245.778 138.364 245.971 138.272L246.415 138.062L246.294 138.537C246.29 138.555 246.289 138.592 246.331 138.665C246.374 138.743 246.457 138.839 246.571 138.944C246.801 139.152 247.156 139.381 247.552 139.587C248.343 139.995 249.332 140.325 249.789 140.279H250.14L250.018 140.604C247.853 146.424 244.03 153.001 238.644 155.653L238.584 155.699H238.518C237.023 155.547 235.012 154.607 234.08 153.982C233.369 153.506 232.428 152.89 231.831 151.938C231.266 151.039 231.338 151.103 230.739 150.521C230.472 150.257 230.042 150.005 229.641 149.831C229.239 149.657 228.825 149.584 228.743 149.584C228.556 149.598 228.088 149.79 227.696 150.056L227.619 150.11H227.526C226.25 149.881 225.343 149.945 224.717 150.165C224.09 150.384 223.733 150.752 223.521 151.191C223.107 152.052 223.307 153.226 223.518 153.874C223.542 153.5 223.581 153.15 223.688 152.907C223.822 152.608 224.024 152.402 224.269 152.311C224.513 152.219 224.779 152.255 225.009 152.374C225.239 152.491 225.443 152.688 225.606 152.939L225.663 153.027L225.64 153.108C225.629 153.085 225.62 153.06 225.608 153.036L225.622 153.082C225.637 153.137 225.618 153.173 225.635 153.128L225.64 153.108C225.936 153.792 225.79 154.26 225.673 154.521L225.618 154.646H225.485C224.936 154.7 224.401 154.828 223.757 155.305L223.684 155.359H223.594C222.489 155.238 221.72 155.452 221.19 155.822C220.661 156.195 220.358 156.74 220.225 157.33C220.091 157.921 220.135 158.553 220.295 159.06C220.45 159.549 220.719 159.894 220.974 160.013C220.877 159.735 220.845 159.451 220.918 159.19C221.019 158.832 221.243 158.52 221.527 158.318C221.812 158.117 222.186 158.03 222.522 158.186C222.859 158.343 223.109 158.715 223.239 159.299L223.245 159.345V159.463L223.201 159.518H223.213L223.22 159.563C223.262 159.842 223.462 160.157 223.754 160.44C224.045 160.724 224.421 160.971 224.767 161.136L224.996 161.246L224.864 161.461C224.689 161.749 224.47 161.881 224.424 162.16L224.402 162.294L224.273 162.34C223.1 162.751 222.413 163.296 222.043 163.875C221.673 164.454 221.609 165.077 221.725 165.689C221.841 166.302 222.144 166.896 222.504 167.368C222.863 167.839 223.285 168.184 223.579 168.308C223.364 167.925 223.298 167.417 223.562 166.973C223.852 166.487 224.514 166.17 225.571 166.308H225.721L225.764 166.45C225.821 166.646 226.015 166.816 226.305 166.939C226.595 167.058 226.963 167.132 227.277 167.132C227.863 167.138 228.835 166.702 229.793 166.154C230.751 165.606 231.708 164.963 232.393 164.592C233.077 164.22 233.93 164.101 234.681 164.101C235.431 164.082 236.094 164.169 236.338 164.169L236.415 164.174L236.474 164.224C236.707 164.42 237.037 164.608 237.927 164.608C240.307 164.58 241.675 163.935 243.104 163.284C244.532 162.633 246.021 161.971 248.508 162.017C249.693 162.034 251.52 162.693 253.278 163.041C254.157 163.224 255.012 163.311 255.726 163.224C256.439 163.136 256.997 162.881 257.368 162.348L257.41 162.288L257.478 162.243C257.7 162.152 257.914 162.142 258.105 162.197C258.297 162.252 258.461 162.398 258.526 162.586C258.642 162.921 258.463 163.322 258.094 163.743L258.162 163.742C258.387 163.77 258.913 163.557 259.406 163.141C259.899 162.724 260.377 162.129 260.632 161.503C260.887 160.876 260.927 160.236 260.592 159.655C260.256 159.075 259.518 158.52 258.124 158.149L258.024 158.104L257.978 158.013C257.962 157.976 257.957 157.955 257.955 157.944H257.96C257.958 157.943 257.956 157.94 257.953 157.938L257.951 157.937C257.885 157.888 257.837 157.839 257.737 157.765C257.632 157.687 257.488 157.591 257.297 157.495C256.915 157.307 256.347 157.122 255.528 157.12C254.68 157.12 253.961 157.316 253.373 157.531C252.785 157.749 252.344 157.988 251.986 158.089C251.64 158.199 251.384 158.216 251.171 158.134C250.957 158.053 250.836 157.843 250.815 157.66C250.775 157.295 250.957 156.94 251.021 156.779C251.768 154.968 253.864 152.487 256.17 150.098C258.476 147.708 260.989 145.43 262.562 144.113L262.591 144.067H262.625C262.921 143.951 263.286 143.766 263.729 143.486H263.773C264.594 143.193 265.287 143.161 265.822 143.325C266.358 143.489 266.732 143.86 266.862 144.317C267.118 145.211 266.459 146.316 264.915 146.909C264.869 146.969 264.857 147.047 264.896 147.115C264.937 147.197 265.014 147.197 265.087 147.197C268.69 146.247 270.167 144.814 270.769 143.646C271.069 143.061 271.153 142.536 271.164 142.156C271.169 141.964 271.157 141.808 271.143 141.703C271.136 141.648 271.128 141.626 271.122 141.58C271.119 141.534 271.117 141.534 271.115 141.534H271.11L271.109 141.488C271.37 137.567 266.692 135.939 265.801 135.504H265.76L265.73 135.458C265.053 134.709 264.624 134.105 264.377 133.535C264.13 132.965 264.071 132.431 264.123 131.873C264.151 131.57 264.27 131.2 264.507 130.912C264.625 130.77 264.78 130.647 264.976 130.592C265.171 130.537 265.398 130.569 265.613 130.684H265.646C266.217 131.132 266.848 131.488 267.353 131.63C267.605 131.689 267.824 131.735 267.979 131.689C268.132 131.657 268.221 131.598 268.29 131.47H268.314C268.326 131.456 268.306 131.41 268.32 131.41L268.697 131.666C268.688 131.712 268.662 131.712 268.651 131.712H268.668C268.629 131.758 268.619 131.794 268.679 131.932C268.739 132.07 268.883 132.263 269.089 132.469C269.5 132.88 270.153 133.351 270.847 133.744C271.541 134.138 272.281 134.458 272.855 134.586C273.143 134.636 273.388 134.682 273.55 134.637C273.711 134.605 273.775 134.554 273.816 134.453L274.092 133.771L274.255 134.488C274.381 135.043 274.702 135.44 275.146 135.737C275.591 136.032 276.159 136.215 276.742 136.307C277.325 136.375 277.92 136.375 278.41 136.307C278.9 136.243 279.29 136.096 279.419 135.986L279.64 135.803L279.772 136.06C280.325 137.12 281.602 137.532 282.775 137.614C283.362 137.655 283.916 137.614 284.31 137.541C284.506 137.504 284.665 137.464 284.757 137.418C284.803 137.372 284.831 137.375 284.834 137.372C284.835 137.368 284.826 137.422 284.816 137.423L285.26 137.468C285.26 137.472 285.239 137.519 285.234 137.519L285.255 137.521C285.251 137.543 285.255 137.585 285.321 137.667C285.388 137.749 285.513 137.85 285.681 137.95C286.017 138.15 286.524 138.348 287.089 138.472C288.219 138.722 289.579 138.689 290.379 138.096L290.619 137.917L290.801 138.365C292.234 140.111 293.09 142.432 294.051 146.417C295.027 150.453 294.844 153.69 293.535 156.952H293.528C293.471 157.057 293.382 157.08 293.307 157.126C293.231 157.131 293.155 157.177 293.072 157.177H292.509L292.47 157.176H292.432C291.388 156.765 290.746 156.436 290.028 155.857C289.345 155.313 288.533 154.549 287.931 153.695H287.917C287.371 152.727 286.997 151.979 286.434 151.427C285.905 150.91 284.918 150.645 284.173 150.571C283.871 150.599 283.622 150.69 283.394 150.851L283.302 150.915L283.193 150.869C281.328 150.294 280.003 150.975 279.15 151.966C278.724 152.461 278.424 153.036 278.262 153.561C278.099 154.085 278.083 154.563 278.171 154.819L278.182 154.865L278.147 154.925C278.154 154.925 278.175 154.88 278.183 154.879C278.432 154.308 279.014 153.915 279.637 153.773C280.278 153.627 281.003 153.746 281.391 154.312L281.414 154.358L281.424 154.404C281.528 154.844 281.501 155.193 281.382 155.449L281.326 155.568H281.197C280.416 155.652 279.537 155.862 278.661 156.961L278.597 157.039H278.495C277.394 157.11 276.698 157.427 276.266 157.853C275.833 158.281 275.646 158.834 275.616 159.438C275.556 160.641 276.167 162.016 276.579 162.538C276.558 161.849 276.844 161.15 277.307 160.725C277.552 160.496 277.852 160.34 278.18 160.341C278.507 160.341 278.837 160.51 279.101 160.844H279.114C279.473 161.403 280.358 161.87 280.941 162.003L281.604 162.149L280.987 162.434C279.711 163.017 279.011 163.652 278.683 164.258C278.354 164.864 278.375 165.453 278.588 166.021C279.011 167.154 280.278 168.149 280.909 168.419C280.61 167.876 280.525 167.248 280.703 166.745C280.798 166.475 280.971 166.237 281.227 166.104C281.483 165.963 281.809 165.944 282.157 166.059L282.32 166.113L282.313 166.283C282.309 166.411 282.372 166.544 282.515 166.686C282.657 166.827 282.876 166.97 283.124 167.084C283.62 167.317 284.242 167.459 284.588 167.459C285.841 167.478 287.296 166.387 288.652 165.656C289.352 165.276 290.423 165.111 291.411 165.015C292.398 164.909 293.298 164.913 293.593 164.909H293.687L293.755 164.973C294.693 165.859 296.087 166.192 297.525 166.238C298.963 166.27 300.433 165.99 301.478 165.665C303.717 164.962 305.441 163.689 307.335 163.643H307.343C308.65 163.652 309.754 164.411 310.756 164.818C311.257 165.02 311.722 165.139 312.173 165.07C312.624 165.004 313.083 164.761 313.588 164.171L313.619 164.125H313.663C314.049 163.937 314.407 163.905 314.701 164.011C314.996 164.118 315.203 164.361 315.317 164.64C315.532 165.163 315.451 165.841 315.135 166.415C315.761 166.149 317.002 165.179 317.43 164.067C317.645 163.509 317.673 162.928 317.366 162.33C317.06 161.732 316.398 161.105 315.18 160.521L314.989 160.43L315.064 160.233C315.072 160.215 315.047 160.032 314.868 159.789C314.689 159.549 314.396 159.265 314.039 159C313.324 158.471 312.349 158.024 311.511 158.022C311.008 158.018 310.39 158.22 309.735 158.431C309.081 158.646 308.387 158.868 307.691 158.87C306.996 158.872 306.293 158.63 305.715 157.952C305.137 157.275 304.67 156.185 304.336 154.478C304.249 154.039 304.134 153.009 304.001 151.658C303.868 150.307 303.721 148.647 303.582 147.004C303.303 143.717 303.059 140.505 303.024 139.922L303.016 139.789L303.129 139.716C303.573 139.433 304.15 139.08 304.704 139.08C304.95 139.066 305.23 139.044 305.529 139.145C305.833 139.247 306.13 139.479 306.396 139.9C306.656 140.312 306.896 140.844 306.897 141.491C306.899 142.103 306.657 142.813 306.087 143.595C309.051 140.612 309.746 137.486 308.975 135.385C308.189 133.24 305.957 131.644 304.262 131.598C301.969 131.542 299.484 130.226 297.368 128.266C295.252 126.305 293.933 124.075 293.091 122.006C292.95 121.652 292.745 121.295 292.569 120.915L292.464 120.687L292.704 120.604C306.114 116.002 309.93 105.407 309.922 98.9346C309.922 94.4508 308.069 90.6414 305.42 87.8477L305.361 87.7832L305.358 87.6963C305.31 86.5583 305.603 85.1467 306.05 83.9062C306.302 83.2054 306.582 82.5743 306.82 82.1211C306.924 81.9243 307.014 81.7824 307.089 81.668L307.377 81.2236L307.505 81.7373C307.572 82.0055 307.622 82.2373 307.777 82.6172C308.002 83.1733 308.303 83.8308 308.644 84.5C309.311 85.8138 310.126 87.1311 310.755 87.6768C311.311 81.0491 313.607 71.3666 321 62.4424C319.417 63.1904 317.96 63.9303 316.655 64.6494L316.651 64.6514C304.657 71.0002 302.506 75.2812 295.848 80.4082C299.087 80.2434 301.879 79.5347 304.412 78.2461L305.149 77.8701L304.713 78.5703C304.053 79.6268 303.299 80.9252 302.559 82.0869C302.125 82.7669 301.703 83.3683 301.345 83.7803C301.17 83.9766 301.022 84.1369 300.86 84.2422C300.816 84.2559 300.76 84.3018 300.708 84.3018L300.625 84.3477L300.546 84.3018C298.791 83.4789 296.964 83.0198 295.224 83.0156C288.671 82.9996 284.205 87.3043 284.169 92.4775C284.133 98.0449 288.489 102.152 292.749 101.941C294.247 101.869 296.25 101.483 298.004 100.325C299.282 99.482 300.404 98.1998 301.07 96.3848L301.516 96.4395C301.527 96.5703 301.567 96.7219 301.567 96.9141C301.567 100.021 300.352 102.19 298.385 103.647C296.418 105.102 293.657 105.833 290.587 105.897C287.531 105.961 284.467 104.33 280.176 102.61C275.881 100.891 270.368 99.11 262.458 98.9727C260.099 98.9315 257.881 99.1645 256.042 100.116C255.963 100.157 255.861 100.253 255.709 100.34L255.416 99.9971C256.442 98.769 257.684 97.6713 259.172 96.8652C262.687 94.9582 267.146 94.4499 271.143 96.0713L271.147 96.0742L271.153 96.0762C271.583 96.278 272.077 96.5319 272.423 96.6738C272.697 96.7837 272.85 96.7786 273.139 96.8701L273.277 96.916L273.297 97.0576C273.365 97.546 273.402 97.9209 273.262 98.2139C273.193 98.3558 273.071 98.4386 272.997 98.4844H272.988L272.979 98.4893C272.895 98.5394 272.838 98.5391 272.794 98.5391L272.788 98.54C272.725 98.5419 272.586 98.54 272.433 98.54L272.442 98.5859L272.437 98.6318C272.44 98.6324 272.468 98.6371 272.563 98.6777H272.604L272.634 98.7227C272.917 98.9927 273.187 99.1031 273.415 99.0527C273.74 98.9772 274.049 98.7018 274.3 98.3447C274.553 97.9946 274.742 97.5671 274.843 97.1826C274.844 97.1735 274.838 97.1412 274.854 97.0635L274.867 97.0039L274.909 96.958C275.199 96.633 275.41 96.165 275.312 95.623C275.213 95.0656 274.736 94.4345 273.753 93.9004H273.729C273.69 93.8775 273.692 93.8768 273.677 93.8311C273.643 93.8038 273.628 93.7995 273.598 93.7539C273.565 93.7219 273.526 93.6711 273.481 93.6162C273.393 93.5036 273.287 93.3432 273.192 93.1465C273.008 92.7675 272.831 92.2525 272.703 91.6611C272.439 90.482 272.363 88.9763 272.703 87.4727C273.038 85.9736 273.77 84.4591 275.181 83.2529C276.587 82.0504 278.662 81.1608 281.657 80.8633C281.68 80.8176 281.681 80.8174 281.735 80.8174H281.817C282.959 81.0417 283.982 81.1836 284.735 81.1836C284.825 81.1835 284.909 81.1377 285.052 81.1377H285.167L285.243 81.2246C285.286 81.2749 285.359 81.3438 285.423 81.458C285.527 81.6396 285.597 81.8691 285.566 82.1299L285.565 82.1348C285.529 82.4067 285.358 82.6178 285.188 82.8467L285.146 82.9014H285.102V82.9746C285.113 82.9288 285.14 82.9287 285.259 82.9287L285.298 82.9268H285.337C285.649 83.0183 285.922 83.0092 286.166 82.8398C286.529 82.5908 286.854 82.1445 287.042 81.6553C287.232 81.1586 287.296 80.6256 287.144 80.1953C287.053 79.9441 286.812 79.7467 286.472 79.5957H286.431L286.399 79.5508C281.633 74.6101 281.825 68.5873 283.694 63.5449C284.631 61.0195 285.998 58.7538 287.359 57.0469C288.041 56.1922 288.758 55.4581 289.401 54.9023C290.044 54.3476 290.599 53.9723 291.026 53.8213C291.04 53.8213 291.052 53.8245 291.099 53.8213C291.112 53.8205 291.146 53.8227 291.148 53.8232H291.18C291.457 53.8232 291.72 53.8368 291.924 53.7773C292.306 53.6661 292.654 53.4782 292.966 53.2402L293.115 53.126C293.201 53.1122 293.502 53.0654 293.502 53.0654C293.686 52.9923 293.89 52.9465 294.082 52.9922C294.191 53.0059 294.269 53.0431 294.33 53.0889L294.335 53.0918L294.339 53.0957C294.34 53.096 294.367 53.1101 294.403 53.1553C294.439 53.201 294.46 53.2603 294.469 53.3105C294.49 53.4296 294.471 53.5355 294.426 53.6865C294.386 53.8187 294.306 53.9851 294.204 54.168H294.23C294.543 54.1089 294.874 53.9177 295.171 53.6064L295.294 53.4688C295.573 53.1372 295.799 52.7362 295.907 52.3438C296.035 51.8965 296.007 51.4482 295.723 51.1553C295.488 50.9219 295.008 50.7891 294.313 50.7891L294.162 50.79L294.102 50.6523C293.995 50.4144 293.802 50.2088 293.538 50.0898C293.3 49.9663 292.935 49.9658 292.52 49.9658L292.485 49.9668L292.137 49.8711H292.107C291.37 49.3991 290.755 49.1339 290.15 49.0469C290.003 49.0011 289.855 48.9987 289.708 49.001ZM158.364 89.4199L158.373 89.4189C158.372 89.419 158.37 89.4179 158.369 89.418C158.368 89.418 158.366 89.4199 158.364 89.4199ZM175.186 60.25H175.159C175.152 60.2674 175.144 60.2766 175.139 60.2832C175.162 60.2701 175.186 60.2581 175.209 60.2451C175.2 60.2467 175.193 60.25 175.186 60.25Z" fill="#E81C28"/>
</svg>
