<svg width="512" height="512" viewBox="0 0 512 512" fill="none" xmlns="http://www.w3.org/2000/svg">
<path d="M453.529 139.008C299.106 124.388 212.524 124.273 58.102 139.008C40.8145 140.932 34.0026 146.912 29.9578 171.374C18.8611 238.626 16.6132 275.229 18.7001 338.832C28.746 363.069 37.5336 370.298 58.102 373.309C212.516 386.075 299.095 387.176 453.529 376.827C481.207 369.078 490.045 360.884 492.931 338.832C495.139 264.812 493.791 228.096 486.598 171.374C486.937 144.412 476.089 141.223 453.529 139.008Z" fill="#E81C28"/>
<circle cx="433.828" cy="248.067" r="14.7757" fill="#D9D9D9"/>
<circle cx="467.601" cy="218.515" r="14.7757" fill="#D9D9D9"/>
<circle cx="63.0273" cy="230.477" r="32.3659" fill="#D9D9D9"/>
<path d="M72.786 219.703V207.386C72.786 207.386 69.9563 205.147 63.165 205.147C56.3737 205.147 53.5439 207.386 53.5439 207.386V219.703C53.5439 220.263 53.5439 220.263 52.978 220.823L53.5439 220.263L63.165 230.9L72.786 220.263L73.9179 221.383L64.2969 232.58L73.9179 243.217L72.786 244.337L63.165 233.7L53.5439 244.337L52.4121 243.217L62.0331 232.58L52.4121 221.943L52.978 221.383C52.978 221.383 52.4121 221.943 51.8461 221.943L38.8294 223.622C38.8294 223.622 37.6975 224.742 37.6975 232.02C37.6975 239.298 39.9613 241.538 39.9613 241.538L51.8461 243.217C52.978 243.217 53.5439 244.337 53.5439 244.897V254.974C53.5439 254.974 56.9396 257.214 63.7309 257.214C70.5223 257.214 72.786 256.094 72.786 256.094V244.897C72.786 243.777 73.352 243.217 74.4839 243.217L87.5006 241.538C87.5006 241.538 89.7644 238.179 89.7644 232.02C89.7644 225.862 87.5006 223.622 87.5006 223.622L74.4839 221.383C73.352 221.383 72.786 220.823 72.786 219.703Z" fill="#E81C28"/>
<path d="M375.771 301.75C370.037 315.385 364.696 320.812 349.67 324.76H258.634V150.266H349.67C404.664 151.982 425.894 158.227 417.151 195.008L375.771 301.75Z" fill="#D9D9D9"/>
<path d="M141.489 301.75C147.222 315.385 152.564 320.812 167.59 324.76H258.625V237.513V150.266H167.59C112.596 151.982 91.3658 158.227 100.109 195.008L141.489 301.75Z" fill="#D9D9D9"/>
<rect x="161.532" y="162.931" width="195.602" height="149.164" rx="9" fill="#E81C28"/>
</svg>
